<svg width="13" height="8" viewBox="0 0 13 8" fill="none" xmlns="http://www.w3.org/2000/svg">
<path d="M6.38962e-05 1.62979C-0.000408173 1.76875 0.0302057 1.90605 0.0896559 2.0316C0.149105 2.15715 0.23588 2.26777 0.343603 2.35531L5.91451 6.84797C6.08064 6.98478 6.28903 7.05957 6.50409 7.05957C6.71915 7.05957 6.92754 6.98478 7.09368 6.84797L12.6646 2.19718C12.8542 2.0393 12.9734 1.81243 12.9961 1.56647C13.0187 1.32051 12.9429 1.07562 12.7853 0.885663C12.6277 0.69571 12.4012 0.576255 12.1557 0.553578C11.9102 0.530901 11.6657 0.606859 11.4761 0.764743L6.49945 4.92255L1.52278 0.904267C1.38649 0.790524 1.22053 0.718272 1.04454 0.696061C0.868546 0.673849 0.689883 0.702607 0.529694 0.778931C0.369505 0.855256 0.234492 0.975954 0.140632 1.12674C0.046771 1.27753 -0.00200844 1.4521 6.38962e-05 1.62979Z" fill="black"/>
</svg>
